<svg width="2294" height="3029" viewBox="0 0 2294 3029" fill="none" xmlns="http://www.w3.org/2000/svg">
<g clip-path="url(#clip0_70_2)">
<path d="M1600.1 2121.01C1563.36 2109.15 1526.67 2089.08 1492.24 2059.55C1382.82 1965.75 1359.25 1518.44 1359.25 1518.44L1359.75 1517.78L1560.2 1249.21C1560.2 1249.21 1575.42 1270.53 1599.59 1305.77C1624.32 1341.9 1658.41 1392.6 1695.09 1449.91C1779.98 1582.7 1878.68 1750.98 1906.66 1855.23C1957.37 2044.13 1777.33 2178.12 1600.1 2121.01Z" fill="white"/>
<g opacity="0.25">
<path d="M1914.87 1933.32C1905.36 2078.87 1751.7 2169.86 1600.1 2121.01C1563.36 2109.15 1526.67 2089.08 1492.24 2059.55C1382.82 1965.75 1359.25 1518.44 1359.25 1518.44L1359.75 1517.78L1401.74 1461.53C1411.6 1581.45 1444.43 1877.51 1531.07 1951.78C1565.51 1981.31 1714.74 2021.72 1753.15 2025.51C1848.38 2034.91 1858.11 2011.2 1914.87 1933.32Z" fill="#371A45"/>
</g>
<path d="M1683.14 2152.31C1617.47 2152.32 1545.68 2129.71 1480.2 2073.59C1366.07 1975.76 1341.78 1537.98 1340.8 1519.39C1340.27 1509.19 1348.1 1500.49 1358.29 1499.96C1368.56 1499.36 1377.18 1507.25 1377.72 1517.44C1384.16 1639.68 1419.46 1972.83 1504.26 2045.52C1616.38 2141.62 1736.85 2124.89 1805.95 2081.37C1881.01 2034.09 1912.76 1949.28 1888.83 1860.04C1838.47 1672.29 1548.08 1264.02 1545.15 1259.92C1539.22 1251.61 1541.15 1240.07 1549.46 1234.14C1557.77 1228.22 1569.32 1230.14 1575.24 1238.45C1587.35 1255.42 1872.44 1656.28 1924.53 1850.46C1952.82 1955.94 1914.93 2056.4 1825.65 2112.64C1786.86 2137.08 1737.06 2152.31 1683.14 2152.31Z" fill="#371A45"/>
<path d="M1550.74 1782.41C1543.76 1782.41 1537.07 1778.43 1533.95 1771.69C1529.66 1762.42 1533.69 1751.44 1542.95 1747.15C1550.84 1743.49 1737.68 1658.09 1859.86 1705.68C1869.37 1709.39 1874.08 1720.1 1870.38 1729.61C1866.67 1739.13 1855.96 1743.83 1846.44 1740.13C1738.97 1698.27 1560.28 1779.86 1558.48 1780.69C1555.97 1781.86 1553.33 1782.41 1550.74 1782.41Z" fill="#371A45"/>
<path d="M1724.95 1901.79C1756.49 1870.25 1756.49 1819.12 1724.95 1787.58C1693.41 1756.04 1642.28 1756.04 1610.74 1787.58C1579.2 1819.12 1579.2 1870.25 1610.74 1901.79C1642.28 1933.33 1693.41 1933.33 1724.95 1901.79Z" fill="white"/>
<g opacity="0.35">
<path d="M1748.6 1846.64C1747.51 1891.22 1710.51 1926.53 1665.92 1925.45C1621.33 1924.36 1586.03 1887.3 1587.11 1842.71C1587.41 1830.39 1590.46 1818.72 1595.72 1808.38C1608.01 1835.96 1635.4 1855.57 1667.6 1856.35C1699.81 1857.13 1728.11 1838.88 1741.67 1811.93C1746.42 1822.51 1748.9 1834.32 1748.6 1846.64Z" fill="#371A45"/>
</g>
<path d="M1667.94 1943.93C1667.11 1943.93 1666.29 1943.92 1665.46 1943.9C1638.96 1943.25 1614.3 1932.33 1596.01 1913.13C1577.73 1893.94 1568.02 1868.77 1568.66 1842.27C1570 1787.57 1615.52 1744.2 1670.29 1745.47C1696.79 1746.12 1721.45 1757.04 1739.74 1776.24C1758.02 1795.43 1767.73 1820.6 1767.09 1847.1C1766.44 1873.6 1755.52 1898.26 1736.32 1916.54C1717.73 1934.26 1693.53 1943.93 1667.94 1943.93ZM1667.86 1782.4C1634.21 1782.4 1606.44 1809.35 1605.62 1843.17C1604.78 1877.5 1632.03 1906.11 1666.36 1906.94C1666.87 1906.95 1667.39 1906.96 1667.9 1906.96C1701.54 1906.96 1729.31 1880.02 1730.14 1846.2C1730.97 1811.87 1703.72 1783.26 1669.39 1782.42C1668.88 1782.41 1668.37 1782.4 1667.86 1782.4Z" fill="#371A45"/>
<path d="M1789.44 1985.42L1753.16 2025.51L1680.78 2105.54C1640.89 2105.49 1618.72 2059.05 1607 2001.19C1590.34 1919 1594.79 1813.79 1599.5 1785.81C1605.45 1750.88 1659.21 1705.28 1717.87 1739.87C1802.66 1789.87 1789.44 1985.42 1789.44 1985.42Z" fill="white"/>
<g opacity="0.25">
<path d="M1753.16 2025.51L1680.78 2105.54C1640.89 2105.49 1618.72 2059.05 1607 2001.19C1633.48 2019.6 1681.23 2040.03 1753.16 2025.51Z" fill="#371A45"/>
</g>
<path d="M1786.38 1985.2C1781.4 1953.29 1776.87 1921.91 1770.82 1891.39C1764.54 1861.04 1757.45 1830.99 1745.38 1804.73C1739.35 1791.72 1732.28 1779.56 1723.53 1770.02C1721.28 1767.75 1719.12 1765.3 1716.68 1763.39C1715.47 1762.4 1714.36 1761.23 1713.09 1760.37L1709.31 1757.73C1706.83 1755.91 1703.75 1754.69 1701.02 1753.06C1699.63 1752.19 1698.17 1751.68 1696.71 1751.16L1692.36 1749.49C1680.69 1745.34 1668.41 1745.73 1656.82 1749.45C1645.1 1752.9 1634.53 1761.07 1626.91 1770.65C1623.32 1775.54 1620.47 1780.79 1619 1785.62C1618.77 1786.81 1618.47 1787.88 1618.15 1789.11L1617.47 1794.27C1617.06 1797.89 1616.73 1801.65 1616.43 1805.45C1615.38 1820.74 1615.06 1836.43 1615.06 1852.06C1615.23 1883.34 1616.5 1914.68 1619.19 1945.62C1620.54 1961.08 1622.36 1976.44 1624.61 1991.59C1626.98 2006.73 1630.05 2021.61 1633.8 2036C1637.6 2050.35 1642.31 2064.21 1649.19 2076.24C1652.45 2082.52 1656.82 2087.54 1661.8 2092.28C1666.91 2096.94 1673.29 2099.94 1680.78 2102.47L1681.22 2102.62C1682.85 2103.17 1683.72 2104.94 1683.17 2106.57C1682.8 2107.68 1681.85 2108.44 1680.77 2108.63C1678.65 2109.01 1676.47 2109.27 1674.23 2109.55C1673.11 2109.66 1671.96 2109.87 1670.84 2109.88L1667.46 2109.6C1665.2 2109.35 1662.8 2109.3 1660.54 2108.79L1653.82 2106.73C1645.02 2103.49 1636.96 2097.95 1630.46 2091.56C1617.18 2078.64 1608.42 2062.9 1601.69 2047.15C1594.99 2031.28 1590.61 2014.96 1587.07 1998.67C1583.43 1982.38 1580.96 1966 1579.07 1949.64C1575.45 1916.9 1574.54 1884.18 1575.5 1851.5C1575.99 1835.13 1576.86 1818.84 1578.43 1802.24C1578.82 1798.07 1579.25 1793.87 1579.82 1789.55C1580.08 1787.41 1580.49 1785.06 1580.82 1782.83C1581.41 1780.17 1582.13 1777.38 1582.85 1774.68C1586.22 1764.23 1591.46 1755.46 1597.48 1747.59C1603.8 1740.03 1610.77 1733.14 1618.81 1727.61C1622.75 1724.78 1626.98 1722.29 1631.23 1719.9C1635.7 1717.84 1640.02 1715.48 1644.8 1714.09C1647.16 1713.31 1649.49 1712.48 1651.88 1711.8L1659.2 1710.29C1664.06 1709.07 1669.13 1709.18 1674.11 1708.74C1679.09 1708.71 1684.11 1709.12 1689.06 1709.62C1693.88 1710.63 1698.91 1711.25 1703.56 1712.76L1710.51 1715.1C1712.84 1715.88 1715.16 1716.68 1717.26 1717.81C1721.55 1720.01 1725.96 1721.77 1730.1 1724.46L1736.3 1728.47C1738.36 1729.82 1740.15 1731.45 1742.08 1732.94C1746.02 1735.88 1749.28 1739.35 1752.69 1742.72C1765.92 1756.52 1774.96 1772.58 1781.91 1788.71C1785.34 1796.83 1788.18 1805.01 1790.64 1813.25C1792.9 1821.52 1794.93 1829.8 1796.54 1838.07C1799.68 1854.65 1801.6 1871.24 1802.08 1887.79C1802.82 1904.31 1802.24 1920.78 1800.76 1937.1C1799.28 1953.44 1796.77 1969.62 1792.52 1985.62C1792.08 1987.3 1790.36 1988.3 1788.69 1987.85C1787.45 1987.52 1786.58 1986.49 1786.39 1985.31L1786.38 1985.2Z" fill="#371A45"/>
<path d="M1054.88 1282.22L993.529 1971.64L968.199 2256.36C968.199 2256.36 653.145 2266.75 563.236 2142.52C529.986 2096.47 514.689 1965.72 515.277 1822.86C516.086 1648.83 540.398 1456.73 584.442 1378.03C655.142 1251.69 946.486 1264.83 1054.88 1282.22Z" fill="white"/>
<g opacity="0.25">
<path d="M993.529 1971.64L968.199 2256.36C968.199 2256.36 653.145 2266.75 563.236 2142.52C529.986 2096.47 514.689 1965.72 515.277 1822.86L711.003 1792.72C711.003 1792.72 778.958 1795.43 777.929 2011.64C777.68 2072.14 869.356 2097.37 939.194 2050.61C964.51 2033.63 981.628 2005.39 993.529 1971.64Z" fill="#371A45"/>
</g>
<path d="M948.438 2275.11C875.281 2275.11 630.125 2266.45 548.289 2153.35C504.776 2093.21 493.582 1918.57 497.618 1775.2C501.624 1632.77 522.308 1451.28 568.333 1369C645.625 1230.84 947.852 1246.33 1057.79 1263.96C1067.87 1265.58 1074.73 1275.06 1073.11 1285.14C1071.5 1295.21 1062.05 1302.07 1051.94 1300.46C931.303 1281.11 662.253 1276.83 600.593 1387.05C565.366 1450.02 539.448 1602.79 534.568 1776.24C529.788 1946.13 547.337 2088.97 578.235 2131.68C661.331 2246.51 964.57 2237.98 967.62 2237.9C977.798 2237.38 986.363 2245.57 986.697 2255.77C987.031 2265.97 979.036 2274.51 968.833 2274.84C967.048 2274.9 959.827 2275.11 948.438 2275.11Z" fill="#371A45"/>
<path d="M533.952 1793.41L699.193 1810.46C713.945 1811.98 725.823 1823.23 728.055 1837.9C736.229 1891.58 748.673 2016.57 695.565 2056.24C651.485 2089.17 581.572 2083.21 541.508 2047.34C496.692 2007.21 495.615 1884.94 498.044 1824.5C498.8 1805.71 515.244 1791.48 533.952 1793.41Z" fill="white"/>
<g opacity="0.25">
<path d="M728.044 1837.91C736.246 1891.58 748.666 2016.57 695.552 2056.23C651.465 2089.18 581.569 2083.22 541.483 2047.33C513.942 2022.63 502.924 1966.88 499.095 1913.56C505.814 1940.34 516.923 1962.23 531.095 1976.79C612.293 2060.21 677.262 1966.34 677.262 1966.34C677.262 1966.34 687.428 1989.86 696.008 1991.41C731.887 1997.92 727.582 1884.91 723.998 1826.48C726.017 1829.9 727.426 1833.75 728.044 1837.91Z" fill="#371A45"/>
</g>
<path d="M625.73 2096.4C590.735 2096.4 555.244 2084.45 529.18 2061.11C481.997 2018.86 476.162 1908.72 479.578 1823.76C480.14 1809.73 486.546 1796.41 497.151 1787.22C507.766 1778.03 521.873 1773.57 535.847 1775.02H535.849L701.088 1792.07C724.23 1794.46 742.831 1812.16 746.325 1835.12C756.86 1904.28 765.71 2026.91 706.628 2071.05C683.867 2088.05 654.971 2096.4 625.73 2096.4ZM530.564 1811.72C527.175 1811.72 523.953 1812.91 521.357 1815.16C518.391 1817.73 516.669 1821.31 516.511 1825.24C512.263 1930.96 526.216 2008.84 553.838 2033.57C588.65 2064.74 648.486 2068.35 684.505 2041.44C715.904 2017.97 725.355 1942.93 709.783 1840.68C708.821 1834.37 703.687 1829.5 697.293 1828.84L532.056 1811.79H532.058C531.558 1811.74 531.057 1811.72 530.564 1811.72Z" fill="#371A45"/>
<path d="M673.775 1868.95C673.295 1888.98 674.714 1908.94 674.672 1929.12C674.709 1949.28 673.822 1969.68 669.862 1990.12C665.895 2010.42 658.722 2031.21 644.946 2049.04C638.109 2057.89 629.646 2065.79 620.09 2072.06C610.541 2078.36 600.009 2083.04 589.231 2086.38L589.175 2086.4C581.245 2088.86 572.822 2084.42 570.362 2076.49C567.902 2068.56 572.337 2060.14 580.267 2057.68C580.869 2057.49 581.56 2057.33 582.165 2057.22C599.418 2054.25 615.471 2046.92 627.954 2034.29C640.534 2021.77 649.361 2004.67 655.337 1986.37C661.364 1968.01 664.758 1948.42 667.186 1928.68C669.709 1908.92 670.801 1888.8 673.775 1868.95Z" fill="#371A45"/>
<path d="M679.836 1358.03C702.657 1358.44 725.291 1359.35 748.019 1360.54C770.728 1361.73 793.437 1363.33 816.167 1365.43C838.901 1367.49 861.646 1370.06 884.459 1373.67C907.301 1377.37 930.101 1381.47 953.431 1389.12C963.139 1392.31 968.426 1402.76 965.24 1412.47C962.054 1422.17 951.604 1427.46 941.896 1424.28C941.437 1424.12 940.988 1423.96 940.55 1423.78L940.446 1423.73C921.308 1415.71 899.806 1409.95 878.36 1404.79C856.818 1399.63 834.837 1395.39 812.736 1391.65C790.639 1387.86 768.394 1384.55 746.076 1381.63C723.779 1378.72 701.333 1376.07 679.012 1373.93L678.936 1373.93C674.556 1373.51 671.344 1369.62 671.763 1365.24C672.161 1361.07 675.726 1357.97 679.836 1358.03Z" fill="#371A45"/>
<path d="M1832.45 1265.04V1264.09C1832.95 1264.14 1832.95 1264.44 1832.45 1265.04Z" fill="white"/>
<path d="M1832.45 1265.04V1264.09C1832.95 1264.14 1832.95 1264.44 1832.45 1265.04Z" fill="white"/>
<path d="M1832.45 1264.09C1832.95 1264.14 1832.95 1264.44 1832.45 1265.04V1264.09Z" fill="white"/>
<path d="M1866.02 2876.09C1867.37 2994.01 1738.94 3001.57 1581.58 3001.67C1469.01 3001.72 1384.57 2982.75 1342.53 2946.56C1273.61 2887.3 1291.23 2552.56 1216.55 1942.57L1609.26 1906.89C1609.26 1906.89 1632.18 2029.11 1656.55 2203.09C1678.23 2357.75 1701.05 2553.36 1710.01 2740.35C1710.01 2740.35 1851.26 2778.79 1864.97 2863.73C1865.62 2867.73 1865.97 2871.84 1866.02 2876.09Z" fill="white"/>
<g opacity="0.25">
<path d="M1866.02 2876.09C1867.37 2994.01 1738.94 3001.57 1581.58 3001.67C1469.01 3001.72 1384.57 2982.75 1342.53 2946.56C1273.61 2887.3 1291.23 2552.56 1216.55 1942.57L1609.26 1906.89C1609.26 1906.89 1632.18 2029.11 1656.55 2203.09C1570.42 2265.46 1493.59 2294.54 1412.95 2387.63C1316.35 2499.1 1338.03 2881.1 1524.57 2905.82C1672.32 2925.39 1804.56 2921.29 1864.97 2863.73C1865.62 2867.73 1865.97 2871.84 1866.02 2876.09Z" fill="#371A45"/>
</g>
<path d="M1581.01 3020.13C1462.4 3020.14 1375.77 2999.54 1330.45 2960.57C1283.32 2920.03 1273.81 2794.27 1254.87 2543.72C1242.91 2385.38 1228.01 2188.34 1198.19 1944.82C1196.94 1934.69 1204.15 1925.47 1214.28 1924.23C1224.42 1922.99 1233.64 1930.2 1234.88 1940.33C1264.8 2184.69 1279.74 2382.22 1291.73 2540.93C1308.17 2758.35 1319.03 2901.99 1354.56 2932.54C1392.53 2965.19 1472.94 2983.17 1581.01 2983.17C1581.2 2983.17 1581.38 2983.17 1581.56 2983.17C1687 2983.11 1785.02 2979.65 1825.71 2938.46C1840.72 2923.27 1847.86 2902.95 1847.56 2876.31C1846.81 2811.16 1744.5 2768.94 1705.15 2758.17L1692.21 2754.63L1691.55 2741.22C1672.79 2349.8 1591.89 1914.65 1591.07 1910.3C1589.19 1900.26 1595.8 1890.61 1605.84 1888.73C1615.87 1886.81 1625.53 1893.46 1627.41 1903.49C1628.22 1907.82 1707.82 2335.9 1727.83 2726.49C1767.58 2739.69 1883.49 2785.87 1884.52 2875.89C1884.94 2912.39 1874 2942.19 1852.01 2964.44C1801.23 3015.83 1699.49 3020.07 1581.58 3020.14C1581.39 3020.13 1581.19 3020.13 1581.01 3020.13Z" fill="#371A45"/>
<g opacity="0.35">
<path d="M1207.24 1980.74C1206.32 1971.82 1205.3 1962.71 1204.24 1953.49C1205.3 1962.71 1206.27 1971.82 1207.24 1980.74Z" fill="#371A45"/>
</g>
<g opacity="0.35">
<path d="M1136.29 1976.1C1135.29 1965.22 1134.21 1954.24 1133.07 1943C1134.21 1954.24 1135.29 1965.27 1136.29 1976.1Z" fill="#371A45"/>
</g>
<path d="M1673.02 1950.03C1670.17 1974.86 1665.16 1998.28 1657.56 2020.05C1642.54 2062.85 1619.47 2100.19 1590.39 2132.12C1366.15 2378.52 783.601 2308 765.382 1998.38C764.731 1987.77 764.781 1976.81 765.532 1965.55C768.185 1925.76 771.888 1883.66 776.093 1840.02C801.669 1576.59 847.517 1255.66 810.279 1036.79C889.01 1115.52 1418.01 1150 1421.16 1100.3C1424.46 1051.25 1001.13 842.636 1185.37 871.866C1321.01 900.546 1519.51 926.172 1558.25 1036.79C1560.6 1061.16 1572.07 1092.59 1580.23 1114.87L1615.21 1460.02C1637.99 1626.2 1689.19 1809.89 1673.02 1950.03Z" fill="white"/>
<path d="M1624.37 1458.77C1640.86 1512.1 1651.34 1566.09 1661.12 1620.79C1671.13 1675.4 1681.11 1730.33 1687.88 1786.19C1691.24 1814.12 1693.81 1842.29 1694.7 1870.75C1695.58 1899.2 1695.06 1927.95 1691.37 1956.79C1689.69 1971.21 1686.96 1985.63 1683.48 1999.93L1680.66 2010.64C1679.64 2014.2 1678.44 2017.72 1677.33 2021.26C1675.15 2028.4 1672.51 2035.17 1669.78 2042.02C1658.83 2069.29 1644.17 2095.09 1626.63 2118.62C1591.5 2165.83 1544.9 2203.14 1494.18 2230.66C1443.32 2258.25 1388.27 2276.61 1332.22 2287.78C1276.09 2298.85 1218.77 2302.76 1161.74 2299.97C1104.74 2297.09 1047.88 2287.51 993.125 2269.72C938.559 2251.83 885.522 2225.65 840.666 2186.98C818.364 2167.65 798.25 2145.14 782.421 2119.51C766.507 2093.98 755.038 2065.39 749.114 2035.75C746.2 2020.93 744.473 2005.9 744.115 1990.9C743.965 1983.4 743.976 1975.91 744.429 1968.46C744.795 1960.93 745.39 1954.37 745.858 1947.28C747.895 1919.43 750.241 1891.65 752.854 1863.94C758.011 1808.5 763.946 1753.27 769.781 1698.12C781.484 1587.82 793.059 1477.74 799.397 1367.65C802.415 1312.64 804.248 1257.62 803.286 1202.84C802.392 1148.1 798.699 1093.52 789.905 1040.25L779.409 976.676L824.893 1022.17C828.244 1025.53 833.365 1029.13 839.014 1032.32C844.675 1035.56 850.934 1038.53 857.42 1041.26C870.425 1046.74 884.335 1051.35 898.483 1055.46C926.845 1063.66 956.252 1069.96 985.85 1075.36C1045.13 1086.03 1105.44 1093.1 1165.79 1097.75C1195.98 1100.03 1226.21 1101.67 1256.38 1102.42C1286.52 1103.13 1316.7 1103.1 1346.21 1101.16C1360.87 1100.14 1375.61 1098.68 1388.78 1095.89C1392.03 1095.19 1395.17 1094.4 1397.92 1093.52C1400.67 1092.68 1403.07 1091.6 1404.02 1091.03C1404.44 1090.8 1404.32 1090.67 1403.35 1091.78C1402.91 1092.32 1402.15 1093.34 1401.61 1094.76C1401.23 1095.55 1401.06 1096.36 1400.85 1097.25C1400.65 1098.15 1400.63 1099.16 1400.61 1099.63C1400.66 1102.12 1401.15 1102.69 1401.04 1102.56C1400.99 1102.42 1400.6 1101.7 1400.04 1100.86C1397.55 1097.19 1392.68 1092.16 1387.66 1087.6C1382.56 1082.95 1376.98 1078.33 1371.23 1073.81C1359.72 1064.75 1347.55 1055.98 1335.2 1047.36C1285.61 1012.79 1233.55 980.763 1182.69 944.98C1169.95 935.896 1157.32 926.704 1144.73 915.837C1141.58 913.088 1138.44 910.219 1135.25 907.009C1132.06 903.711 1128.86 900.342 1125.46 895.322C1123.78 892.722 1121.94 889.807 1120.39 884.929C1120.02 883.74 1119.68 882.197 1119.45 880.737C1119.24 878.972 1119.06 877.439 1119.2 875.295C1119.32 871.413 1120.82 866.425 1123.35 862.783C1124.62 860.827 1125.94 859.429 1127.39 858.052C1128.71 856.863 1130.15 855.794 1131.4 855.017C1133.92 853.469 1136.2 852.524 1138.1 851.887C1141.98 850.6 1145.09 850.11 1147.84 849.804C1158.71 848.762 1166.83 849.711 1175.23 850.575C1179.45 851.09 1183.1 851.578 1187.74 852.323C1191.95 853.08 1195.91 854.017 1199.56 854.745L1244.38 863.842C1304.4 875.993 1365.3 888.119 1424.95 909.181C1454.66 919.867 1484.26 932.78 1511.61 951.583C1525.22 961.009 1538.23 972.02 1549.48 985.201C1560.71 998.331 1570.05 1013.78 1575.88 1030.6L1576.63 1032.75L1576.85 1035C1577.95 1046.25 1581.07 1058.69 1584.78 1071C1588.53 1083.38 1592.98 1095.81 1597.6 1108.51C1601.09 1118.1 1596.15 1128.71 1586.55 1132.2C1576.96 1135.69 1566.38 1130.81 1562.89 1121.22C1558.18 1108.47 1553.41 1095.39 1549.24 1081.84C1545.12 1068.23 1541.34 1054.31 1539.68 1038.56L1540.64 1042.95C1532.19 1018.7 1513.35 998.437 1490.18 982.693C1466.98 966.851 1440.01 955.005 1412.18 945.191C1356.22 925.684 1296.65 913.946 1236.78 902.156L1191.62 893.211C1187.76 892.454 1184.27 891.646 1180.95 891.063C1178.03 890.619 1174.1 890.084 1170.73 889.698C1163.95 888.927 1156.72 888.507 1152.35 889.024C1151.3 889.114 1150.62 889.346 1150.88 889.268C1150.96 889.217 1151.49 889.075 1152.37 888.514C1153.33 887.923 1154.75 886.839 1156.29 884.637C1157.73 882.567 1158.61 879.471 1158.68 877.501C1158.7 876.314 1158.71 875.731 1158.56 874.916C1158.52 874.391 1158.34 873.798 1158.27 873.515C1157.87 872.294 1157.93 872.744 1158.36 873.322C1159.23 874.653 1161.24 876.943 1163.39 879.101C1165.6 881.313 1168.11 883.596 1170.74 885.861C1181.34 894.965 1193.48 903.793 1205.69 912.402C1255.06 946.843 1307.44 978.774 1358.41 1013.95C1371.18 1022.79 1383.89 1031.85 1396.46 1041.64C1402.75 1046.56 1409.01 1051.66 1415.23 1057.28C1421.46 1063.05 1427.63 1068.76 1433.94 1077.65C1435.51 1079.98 1437.11 1082.54 1438.62 1085.9C1440.06 1089.25 1441.7 1093.55 1441.74 1099.88C1441.77 1101.32 1441.58 1103.26 1441.23 1105.11C1440.91 1106.95 1440.32 1108.65 1439.68 1110.35C1438.35 1113.51 1436.6 1116.19 1434.91 1118.17C1431.47 1122.2 1428.25 1124.4 1425.42 1126.17C1419.79 1129.51 1415.02 1131.24 1410.48 1132.72C1405.95 1134.16 1401.65 1135.22 1397.44 1136.14C1380.65 1139.66 1364.85 1141.12 1349.01 1142.26C1317.46 1144.36 1286.39 1144.38 1255.37 1143.67C1224.37 1142.92 1193.49 1141.27 1162.67 1138.94C1101.04 1134.19 1039.64 1127.02 978.478 1116.02C947.899 1110.44 917.389 1103.94 886.959 1095.15C871.742 1090.72 856.549 1085.73 841.349 1079.34C833.747 1076.13 826.143 1072.56 818.517 1068.22C810.909 1063.83 803.209 1058.83 795.669 1051.4L830.657 1033.33C839.969 1089.56 843.744 1145.99 844.701 1202.13C845.714 1258.3 843.867 1314.24 840.839 1369.99C834.474 1481.47 822.873 1592.16 811.227 1702.51C805.418 1757.68 799.528 1812.77 794.437 1867.81C791.856 1895.33 789.549 1922.83 787.553 1950.3C787.109 1957.05 786.478 1964.31 786.186 1970.64C785.792 1977.03 785.801 1983.41 785.924 1989.78C786.23 2002.51 787.709 2015.13 790.141 2027.53C795.085 2052.3 804.454 2076.05 817.821 2097.64C831.089 2119.29 848.259 2138.73 867.786 2155.77C907.019 2189.87 955.27 2214.21 1005.85 2230.93C1056.6 2247.6 1110.07 2256.84 1163.81 2259.71C1217.58 2262.52 1271.78 2258.98 1324.54 2248.74C1377.24 2238.42 1428.67 2221.35 1475.48 2196.13C1522.21 2170.97 1564.25 2137.29 1595.6 2095.41C1611.28 2074.52 1624.32 2051.73 1634.12 2027.54C1636.54 2021.52 1638.97 2015.36 1640.84 2009.23C1641.81 2006.16 1642.87 2003.12 1643.77 2000.02L1646.27 1990.62C1649.38 1978 1651.9 1965.12 1653.46 1951.99C1656.91 1925.8 1657.54 1898.9 1656.79 1871.93C1656.04 1844.93 1653.67 1817.79 1650.49 1790.64C1644.1 1736.31 1634.45 1681.98 1624.63 1627.44C1614.59 1573 1604.72 1517.88 1606.06 1461.28C1606.18 1456.11 1610.47 1452.02 1615.64 1452.15C1619.76 1452.24 1623.2 1454.99 1624.36 1458.72L1624.37 1458.77Z" fill="#371A45"/>
<path d="M1329.64 2526.97C1294.54 2526.97 1271.87 2525.06 1268.93 2524.79C1258.77 2523.88 1251.27 2514.9 1252.18 2504.74C1253.08 2494.58 1262.07 2487.11 1272.22 2487.98C1274.55 2488.17 1507.08 2507.58 1675.86 2413.56C1684.77 2408.6 1696.03 2411.79 1701 2420.71C1705.97 2429.63 1702.77 2440.88 1693.85 2445.86C1567.81 2516.07 1413.37 2526.97 1329.64 2526.97Z" fill="#371A45"/>
<path d="M1706.36 2758.46C1699.96 2756.9 1692.18 2755.44 1684.89 2754.34C1677.47 2753.18 1669.97 2752.31 1662.45 2751.56C1647.4 2750.17 1632.24 2749.72 1617.11 2750.17C1601.96 2750.49 1586.9 2752.17 1572.01 2754.76C1557.04 2757.18 1542.59 2761.58 1528.28 2766.53L1527.78 2766.7C1522.96 2768.37 1517.7 2765.81 1516.03 2760.99C1514.47 2756.48 1516.65 2751.57 1520.88 2749.59C1535.7 2742.74 1550.96 2736.45 1566.78 2732.25C1582.54 2727.88 1598.63 2724.49 1614.85 2722.53C1631.07 2720.46 1647.42 2719.34 1663.8 2719.25C1671.99 2719.26 1680.19 2719.4 1688.42 2719.86C1692.53 2720.1 1696.65 2720.36 1700.8 2720.75C1705.03 2721.13 1708.93 2721.53 1713.67 2722.23C1723.78 2723.7 1730.79 2733.1 1729.31 2743.21C1727.83 2753.33 1718.44 2760.33 1708.32 2758.85C1707.75 2758.77 1707.19 2758.66 1706.65 2758.53L1706.36 2758.46Z" fill="#371A45"/>
<path d="M1239.81 2158.57C1239.81 2158.57 1152.1 2611.3 1110.97 2823.07C1075.88 3003.73 952.928 3015.51 682.968 3005.42C587.999 3001.87 515.59 2969.16 522.915 2891.45C532.753 2787.07 680.055 2747.55 680.055 2747.55C680.055 2747.55 733.024 2220.96 769.153 1933.47L1239.81 2158.57Z" fill="white"/>
<g opacity="0.25">
<path d="M1070.95 2713.52C1100.91 2524.38 1212.3 2242.83 1235.32 2181.92C1216.85 2277.22 1146.48 2640.1 1110.99 2823.09C1075.9 3003.72 952.927 3015.54 682.947 3005.43C587.999 3001.87 515.574 2969.14 522.931 2891.46C523.682 2883.45 525.233 2875.79 527.536 2868.53C549.093 2897.57 597.099 2911.46 642.955 2914.05C934.787 2930.54 1042.55 2892.86 1070.95 2713.52Z" fill="#371A45"/>
</g>
<path d="M1248.88 2160.32C1243.52 2229.19 1231.72 2296.81 1218.85 2364.22L1180.31 2566.46L1141.78 2768.71L1132.15 2819.27C1130.6 2827.51 1128.81 2836.63 1126.74 2845.36C1124.66 2854.18 1122.19 2862.97 1119.36 2871.71C1113.72 2889.17 1106.34 2906.5 1096.47 2922.82C1086.66 2939.13 1074.22 2954.34 1059.58 2967.08C1044.98 2979.85 1028.35 2990.01 1011.15 2997.68C993.93 3005.42 976.179 3010.85 958.464 3014.92C922.97 3023.02 887.586 3026.02 852.616 3027.56C817.62 3029.01 782.918 3028.78 748.369 3028.03C731.094 3027.64 713.857 3027.11 696.645 3026.5L683.742 3026.03C679.387 3025.83 674.813 3025.66 670.347 3025.35C661.368 3024.82 652.355 3023.89 643.336 3022.71C625.302 3020.31 607.164 3016.53 589.216 3010.35C571.378 3004.02 553.46 2995.21 537.815 2981.51C530.041 2974.68 522.954 2966.57 517.311 2957.39C511.676 2948.2 507.615 2937.99 505.264 2927.63C502.894 2917.26 502.192 2906.8 502.638 2896.71C503.05 2886.67 504.695 2876.65 507.357 2866.93C512.727 2847.45 522.666 2829.66 534.823 2814.64C547.009 2799.55 561.3 2786.97 576.381 2776.22C591.484 2765.44 607.516 2756.58 623.927 2748.9C632.145 2745.08 640.479 2741.58 648.939 2738.38C653.17 2736.78 657.433 2735.26 661.75 2733.83C666.165 2732.36 670.211 2731.07 675.245 2729.7L675.263 2729.7L661.664 2745.7C675.432 2609.84 689.588 2474.07 704.24 2338.31C718.946 2202.55 733.951 2066.85 750.814 1931.17C752.073 1921.04 761.305 1913.85 771.435 1915.11C781.565 1916.37 788.756 1925.6 787.497 1935.73L787.491 1935.78C770.683 2071 755.684 2206.64 740.992 2342.28C726.352 2477.92 712.198 2613.67 698.444 2749.4L697.176 2761.91L684.844 2765.4L684.837 2765.4C681.608 2766.34 677.489 2767.69 673.786 2769C669.986 2770.34 666.19 2771.76 662.421 2773.26C654.879 2776.25 647.439 2779.53 640.159 2783.07C625.597 2790.13 611.685 2798.31 598.911 2807.56C573.41 2825.96 552.724 2849.89 545.525 2877.37C541.929 2890.96 541.25 2905.97 544.275 2918.54C547.232 2931.26 554.148 2942.12 564.505 2950.99C574.799 2959.89 588.192 2966.64 602.659 2971.59C617.178 2976.57 632.791 2979.89 648.753 2981.99C656.746 2983.02 664.81 2983.85 672.96 2984.32C677.052 2984.6 681.053 2984.74 685.267 2984.93L698.081 2985.38C715.162 2985.97 732.224 2986.47 749.254 2986.83C783.309 2987.54 817.27 2987.7 850.848 2986.27C884.375 2984.79 917.681 2981.78 949.142 2974.54C980.585 2967.4 1009.87 2955.3 1032.55 2935.84C1055.3 2916.47 1070.93 2889.33 1080.88 2859.03C1083.38 2851.47 1085.63 2843.75 1087.55 2835.87C1089.49 2827.93 1091.08 2820.22 1092.75 2811.61L1102.71 2761.12L1142.55 2559.13L1182.4 2357.15C1195.64 2289.81 1209.97 2222.69 1230.74 2156.81C1232.28 2151.91 1237.5 2149.18 1242.4 2150.73C1246.61 2152.06 1249.21 2156.11 1248.88 2160.32Z" fill="#371A45"/>
<path d="M1016.32 2517.6C794.912 2517.6 706.087 2467.8 701.672 2465.24C692.846 2460.12 689.846 2448.8 694.97 2439.98C700.082 2431.18 711.34 2428.16 720.163 2433.23C721.623 2434.06 847.656 2502.92 1173.61 2473.01C1183.74 2472.05 1192.77 2479.56 1193.71 2489.73C1194.64 2499.89 1187.16 2508.89 1176.99 2509.82C1117.06 2515.32 1063.65 2517.6 1016.32 2517.6Z" fill="#371A45"/>
<path d="M670.801 2729.07C684.15 2726.96 696.308 2725.82 709.024 2724.87C721.61 2723.99 734.192 2723.52 746.779 2723.45C771.944 2723.29 797.138 2724.84 822.129 2728.32C847.104 2731.89 871.896 2737.5 895.844 2745.95C907.822 2750.15 919.504 2755.25 930.887 2760.93C942.224 2766.73 953.095 2773.45 963.494 2780.82C967.658 2783.76 968.643 2789.53 965.693 2793.7C962.863 2797.69 957.443 2798.76 953.331 2796.24L953.079 2796.08C943.097 2789.93 932.755 2784.4 921.995 2779.72C911.176 2775.16 900.132 2771.14 888.794 2767.95C866.134 2761.53 842.697 2757.74 819.086 2755.88C795.456 2754.1 771.644 2754.12 747.942 2755.78C736.093 2756.59 724.269 2757.78 712.526 2759.35C700.926 2760.93 688.808 2762.91 678.122 2765.31L677.742 2765.39C667.774 2767.63 657.881 2761.36 655.644 2751.39C653.407 2741.42 659.675 2731.53 669.643 2729.29C670.012 2729.21 670.433 2729.13 670.801 2729.07Z" fill="#371A45"/>
<g opacity="0.25">
<path d="M1673.02 1950.03C1671.57 1962.8 1669.52 1975.16 1666.81 1987.12C1666.21 1989.97 1665.56 1992.78 1664.86 1995.58C1662.76 2003.94 1660.31 2012.1 1657.55 2020.05C1655.05 2027.21 1652.3 2034.22 1649.35 2041.08C1648.65 2042.73 1647.95 2044.38 1647.19 2045.98C1646.39 2047.73 1645.59 2049.44 1644.79 2051.14C1643.74 2053.34 1642.69 2055.59 1641.59 2057.79C1635.18 2070.51 1628.02 2082.72 1620.22 2094.33C1618.76 2096.43 1617.31 2098.54 1615.81 2100.59C1614.46 2102.54 1613.06 2104.44 1611.66 2106.35C1609.75 2108.9 1607.8 2111.4 1605.85 2113.9C1604.25 2115.91 1602.65 2117.91 1601 2119.91C1600.24 2120.81 1599.49 2121.66 1598.74 2122.56C1597.04 2124.61 1595.34 2126.62 1593.59 2128.57C1592.54 2129.77 1591.44 2130.97 1590.39 2132.12C1502.59 2228.57 1359.95 2276.47 1217.7 2280.43L1244.53 2150.79C1276.81 2149.19 1308.94 2145.94 1340.48 2140.98L1160.74 2147.29C1110.24 2149.09 1067.44 2109.2 1065.64 2058.65L1064.44 2024.66C887.457 2045.13 791.958 2010.35 765.38 1998.38C764.729 1987.77 764.779 1976.81 765.53 1965.55C768.183 1925.76 771.886 1883.67 776.091 1840.02C873.592 1884.67 1000.47 1880.16 1059.18 1874.91L1057.68 1831.56C1056.13 1787.32 1086.51 1749.03 1128.06 1738.97C1133.91 1737.51 1140.07 1736.71 1146.32 1736.46L1572.97 1721.5C1623.52 1719.7 1666.36 1759.59 1668.06 1810.14L1673.02 1950.03Z" fill="#371A45"/>
</g>
<path d="M1598.15 2053.17L1171.46 2068.15C1120.96 2069.94 1078.15 2030.06 1076.36 1979.49L1068.41 1752.43C1066.85 1708.16 1097.25 1669.87 1138.77 1659.84C1144.65 1658.38 1150.76 1657.57 1157.06 1657.33L1583.68 1642.36C1634.24 1640.57 1677.06 1680.45 1678.78 1731.01L1685.12 1910.85L1686.8 1958.07C1688.59 2008.63 1648.65 2051.38 1598.15 2053.17Z" fill="white"/>
<g opacity="0.25">
<path d="M1598.15 2053.17L1171.46 2068.15C1120.96 2069.94 1078.15 2030.06 1076.36 1979.49L1068.41 1752.43C1066.85 1708.16 1097.25 1669.87 1138.77 1659.84C1163.56 1675.08 1179.31 1684.84 1179.31 1684.84C1206.48 1866.37 1203.22 2001.77 1485.35 1973.09C1582.62 1963.2 1646.92 1932.26 1685.12 1910.85L1686.8 1958.07C1688.59 2008.63 1648.65 2051.38 1598.15 2053.17Z" fill="#371A45"/>
</g>
<path d="M1176.27 2086.42C1146.21 2086.42 1117.65 2075.15 1095.42 2054.43C1072.15 2032.74 1058.73 2003.4 1057.62 1971.79L1050.23 1761.45C1047.93 1695.99 1099.32 1640.86 1164.78 1638.56L1574.68 1624.16C1606.29 1623.04 1636.5 1634.39 1659.77 1656.08C1683.04 1677.76 1696.46 1707.11 1697.57 1738.71L1704.96 1949.05C1707.26 2014.52 1655.88 2069.65 1590.41 2071.95L1180.51 2086.35C1179.1 2086.39 1177.68 2086.42 1176.27 2086.42ZM1578.89 1661.05C1577.92 1661.05 1576.95 1661.07 1575.98 1661.11L1166.08 1675.5C1120.99 1677.09 1085.59 1715.06 1087.17 1760.15L1094.56 1970.5C1095.32 1992.23 1104.58 2012.43 1120.63 2027.39C1136.67 2042.35 1157.52 2050.14 1179.21 2049.4L1589.11 2035.01C1610.85 2034.25 1631.05 2024.99 1646.01 2008.94C1660.97 1992.89 1668.78 1972.09 1668.02 1950.36L1660.63 1740.01C1659.87 1718.28 1650.61 1698.08 1634.56 1683.12C1619.24 1668.83 1599.56 1661.05 1578.89 1661.05Z" fill="#371A45"/>
<path d="M1615.21 2050.89C1609.72 2052.23 1604.05 2052.99 1598.14 2053.17L1171.46 2068.15C1134.45 2069.43 1101.58 2048.41 1085.98 2017.09C1080.28 2005.72 1076.87 1992.98 1076.43 1979.49L1072.85 1878.62L1071.67 1845.34L1068.41 1752.43C1066.62 1701.87 1106.56 1659.12 1157.06 1657.33L1249.26 1654.12C1207.04 1663.62 1176 1702.22 1177.54 1746.94L1181.81 1869.59L1185.5 1974.06C1187.29 2024.56 1230.1 2064.5 1280.6 2062.71L1615.21 2050.89Z" fill="white"/>
<g opacity="0.25">
<path d="M1615.21 2050.89C1609.72 2052.23 1604.05 2052.99 1598.15 2053.17L1171.46 2068.15C1120.96 2069.94 1078.15 2030.06 1076.43 1979.49L1071.67 1845.34C1083.23 1868.67 1103.53 1897.08 1134.49 1899.06C1151.47 1900.18 1167.71 1887.41 1181.81 1869.59L1185.5 1974.06C1187.29 2024.56 1230.1 2064.5 1280.6 2062.71L1615.21 2050.89Z" fill="#371A45"/>
</g>
<path d="M1168.13 2086.71C1140.23 2086.71 1113.7 2076.24 1093.05 2056.98C1071.41 2036.81 1058.94 2009.52 1057.93 1980.15L1049.95 1753.08C1047.78 1692.26 1095.54 1641.01 1156.41 1638.84L1248.59 1635.62L1253.3 1672.12C1218.87 1679.89 1194.78 1711.1 1196.02 1746.31L1204 1973.4C1204.67 1992.91 1212.97 2011.05 1227.38 2024.48C1241.78 2037.91 1260.43 2044.99 1279.93 2044.23L1614.58 2032.44L1619.51 2068.89C1612.71 2070.5 1605.71 2071.43 1598.7 2071.64L1172.11 2086.64C1170.78 2086.69 1169.45 2086.71 1168.13 2086.71ZM1183.17 1674.89L1157.72 1675.78C1117.23 1677.22 1085.45 1711.32 1086.9 1751.77L1094.87 1978.88C1095.54 1998.38 1103.85 2016.51 1118.26 2029.94C1132.66 2043.37 1151.32 2050.46 1170.8 2049.69L1199.25 2048.69C1179.42 2028.84 1168.02 2002.71 1167.05 1974.68L1159.08 1747.61C1158.12 1720.48 1167.17 1694.92 1183.17 1674.89Z" fill="#371A45"/>
<path d="M1349.83 1856.43C1350.07 1864.83 1340.26 1932.98 1340.26 1932.98C1340.26 1932.98 1318.78 1933.61 1292.41 1934.38C1259.46 1935.35 1231.75 1902.02 1230.51 1859.94C1229.28 1817.86 1254.98 1782.96 1287.93 1781.99C1310.17 1781.34 1335.78 1780.59 1335.78 1780.59C1335.78 1780.59 1349.42 1842.75 1349.83 1856.43Z" fill="#22A7F0"/>
<g opacity="0.35">
<path d="M1349.83 1856.43C1350.07 1864.83 1340.26 1932.98 1340.26 1932.98C1340.26 1932.98 1318.78 1933.61 1292.41 1934.38C1259.46 1935.35 1231.75 1902.02 1230.51 1859.94C1229.28 1817.86 1254.98 1782.96 1287.93 1781.99C1310.17 1781.34 1335.78 1780.59 1335.78 1780.59C1335.78 1780.59 1349.42 1842.75 1349.83 1856.43Z" fill="#371A45"/>
</g>
<path d="M1291.03 1948.26C1251.28 1948.26 1218.1 1909.27 1216.66 1860.34C1215.2 1810.7 1246.99 1769.33 1287.52 1768.13L1346.86 1766.39L1349.32 1777.62C1351.64 1788.21 1363.26 1841.77 1363.68 1856.03C1363.94 1864.93 1356.32 1918.69 1353.98 1934.95L1352.31 1946.49L1292.81 1948.24C1292.22 1948.25 1291.63 1948.26 1291.03 1948.26ZM1324.66 1794.78L1288.34 1795.85C1263.09 1796.59 1243.36 1825.16 1244.37 1859.53C1245.38 1893.9 1266.9 1921.28 1292 1920.52L1328.18 1919.46C1332.25 1890.56 1335.97 1861.57 1335.97 1856.79C1335.72 1849.02 1329.65 1818.24 1324.66 1794.78Z" fill="#371A45"/>
<path d="M1340.43 1932.97C1373.37 1932 1399.08 1897.1 1397.84 1855.01C1396.6 1812.93 1368.89 1779.6 1335.94 1780.57C1303 1781.54 1277.29 1816.44 1278.53 1858.52C1279.76 1900.61 1307.48 1933.94 1340.43 1932.97Z" fill="#22A7F0"/>
<g opacity="0.35">
<path d="M1278.37 1858.55C1279.58 1900.6 1307.3 1933.96 1340.24 1932.99C1373.23 1932.03 1398.93 1897.11 1397.67 1855.01C1397.52 1849.33 1396.84 1843.78 1395.73 1838.46C1388.1 1867.61 1366.89 1888.85 1341.3 1889.56C1312.85 1890.39 1288.26 1865.66 1281.36 1831.71C1279.15 1840.1 1278.12 1849.14 1278.37 1858.55Z" fill="#371A45"/>
</g>
<path d="M1278.37 1858.55C1278.44 1861.41 1278.66 1864.23 1279.02 1867.01C1284.6 1833.85 1307.29 1808.78 1335.12 1807.98C1365.82 1807.1 1392.02 1835.98 1396.34 1874.01C1397.4 1867.88 1397.84 1861.55 1397.67 1855.01C1396.45 1812.95 1368.73 1779.6 1335.79 1780.56C1302.85 1781.58 1277.15 1816.44 1278.37 1858.55Z" fill="white"/>
<path d="M1338.88 1946.86C1299.13 1946.86 1265.94 1907.86 1264.51 1858.94C1263.82 1835.5 1270.42 1813.13 1283.09 1795.92C1296.52 1777.69 1315.09 1767.32 1335.37 1766.73C1355.69 1766.27 1374.8 1775.39 1389.28 1792.8C1402.94 1809.23 1410.84 1831.18 1411.53 1854.62C1412.22 1878.05 1405.62 1900.43 1392.95 1917.64C1379.52 1935.87 1360.95 1946.24 1340.67 1946.83C1340.07 1946.85 1339.47 1946.86 1338.88 1946.86ZM1337.17 1794.43C1336.85 1794.43 1336.52 1794.44 1336.19 1794.45C1324.6 1794.78 1313.68 1801.15 1305.41 1812.37C1296.4 1824.6 1291.71 1840.86 1292.22 1858.13C1293.23 1892.5 1314.63 1919.81 1339.85 1919.12C1351.43 1918.78 1362.36 1912.41 1370.62 1901.2C1379.64 1888.96 1384.33 1872.71 1383.82 1855.43C1383.31 1838.16 1377.68 1822.21 1367.96 1810.52C1359.31 1800.12 1348.41 1794.43 1337.17 1794.43Z" fill="#371A45"/>
<path d="M1465.44 2070.05C1457.86 2070.05 1451.67 2063.95 1451.58 2056.35L1450.27 1941.39C1449.91 1910.02 1465.19 1880.77 1491.15 1863.14C1509.84 1850.46 1520.57 1829.4 1519.86 1806.83L1514.73 1644.86C1514.49 1637.21 1520.5 1630.81 1528.15 1630.56C1535.84 1630.49 1542.2 1636.33 1542.44 1643.98L1547.57 1805.95C1548.59 1838.07 1533.32 1868.03 1506.72 1886.08C1488.48 1898.47 1477.74 1919.03 1477.99 1941.07L1479.31 2056.03C1479.39 2063.68 1473.26 2069.96 1465.6 2070.05C1465.55 2070.05 1465.5 2070.05 1465.44 2070.05Z" fill="#371A45"/>
<path d="M781.916 1758.62C781.916 1758.62 726.044 1765.99 724.265 1831.35C722.351 1901.66 768.28 1915.41 768.28 1915.41C768.28 1915.41 877.898 1978.42 1123.76 1938.8C1123.76 1938.8 1185.9 1843.91 1102.32 1792.05C1102.32 1792.05 913.297 1821.65 781.916 1758.62Z" fill="white"/>
<g opacity="0.25">
<path d="M1123.75 1938.82C877.9 1978.41 768.286 1915.4 768.286 1915.4C768.286 1915.4 722.339 1901.63 724.241 1831.36C724.391 1825.85 724.942 1820.8 725.793 1816.09C738.856 1839.97 758.577 1845.87 758.577 1845.87C758.577 1845.87 856.313 1902.06 1074.25 1874.99C1102.92 1871.43 1126.85 1850.73 1133.28 1822.56C1133.34 1822.29 1133.4 1822.02 1133.46 1821.75C1166.45 1873.6 1123.75 1938.82 1123.75 1938.82Z" fill="#371A45"/>
</g>
<path d="M970.02 1969.42C838.433 1969.42 772.061 1937.27 761.062 1931.4C750.254 1927.28 704.741 1905.41 706.772 1830.87C708.21 1778.07 739.88 1756.08 758.63 1747.67C771.56 1741.87 786.584 1741.84 799.851 1747.56C799.853 1747.56 799.853 1747.56 799.853 1747.57C905.725 1793.27 1046.57 1781.17 1087.22 1776.38C1101.36 1774.7 1115.6 1778.86 1126.31 1787.77C1166.21 1820.91 1174.42 1872.29 1148.85 1928.76C1141.5 1944.99 1126.54 1956.22 1108.84 1958.79C1056.33 1966.42 1010.13 1969.41 970.02 1969.42ZM779.243 1778.29C777.06 1778.29 774.912 1778.73 772.947 1779.61C752.954 1788.58 742.459 1806.14 741.758 1831.83C740.227 1888.09 772.966 1898.54 773.299 1898.64C774.591 1899.03 775.831 1899.56 777 1900.24C777.94 1900.76 880.435 1956.61 1103.81 1924.15C1109.64 1923.31 1114.56 1919.63 1116.97 1914.32C1130.3 1884.88 1138.87 1843.69 1103.95 1814.69C1100.58 1811.89 1095.97 1810.6 1091.32 1811.14C1048.49 1816.2 899.861 1828.86 785.982 1779.69L785.984 1779.7C783.804 1778.76 781.504 1778.29 779.243 1778.29Z" fill="#371A45"/>
<path d="M1026.85 1250.36L969.244 1348.11L821.991 1597.92L817.436 1605.68C811.079 1600.77 804.723 1595.82 798.416 1590.81C517.025 1369.63 265.114 1085.59 233.631 1069.57C141.085 1022.52 65.4069 937.184 59.2999 884.88C47.7379 786.278 181.527 633.77 203.399 609.595C205.351 607.443 206.402 606.292 206.402 606.292C206.402 606.292 90.3819 443.624 166.511 390.419C244.542 335.912 430.184 597.884 442.947 613.55C466.671 642.83 524.531 505.638 605.465 514.197C701.965 524.358 575.584 732.323 582.792 754.846C591.201 781.073 658.67 872.668 776.092 1000.2C787.053 1012.06 798.465 1024.27 810.278 1036.79C871.392 1101.35 943.918 1173.68 1026.85 1250.36Z" fill="white"/>
<g opacity="0.25">
<path d="M821.991 1597.92L817.436 1605.68C811.079 1600.77 804.723 1595.82 798.416 1590.81C517.025 1369.63 265.114 1085.59 233.631 1069.57C141.085 1022.52 65.4069 937.184 59.2999 884.88C47.7379 786.278 181.527 633.77 203.399 609.595C272.721 665.403 435.339 794.637 435.339 794.637C435.339 794.637 433.839 1247.5 821.991 1597.92Z" fill="#371A45"/>
</g>
<path d="M817.432 1624.16C813.487 1624.16 809.512 1622.9 806.148 1620.3C611.002 1469.6 428.433 1286.2 319.354 1176.63C275.545 1132.62 234.166 1091.06 225.165 1085.99C130.822 1038.04 48.124 948.757 40.919 887.009C29.32 787.597 147.257 645.266 183.033 604.665C162.618 573.178 113.062 488.881 123.68 427.255C127.503 405.065 138.355 387.582 155.936 375.292C213.936 334.743 310.516 406.225 451.163 593.837C451.922 594.85 452.623 595.783 453.26 596.635C459.798 591.347 470.003 580.116 477.904 571.423C509.152 537.041 551.991 489.963 607.413 495.805C632.362 498.434 645.008 511.42 651.226 521.85C674.612 561.081 650.188 628.207 618.384 705.444C611.323 722.59 602.654 743.65 601.179 751.313C616.653 789.055 766.606 984.538 1039.4 1236.76C1046.9 1243.7 1047.36 1255.39 1040.43 1262.88C1033.5 1270.38 1021.81 1270.83 1014.31 1263.91C741.933 1012.07 579.565 805.407 565.192 760.468C561.264 748.185 567.011 733.119 584.203 691.369C602.055 648.012 635.289 567.309 619.474 540.778C617.538 537.533 613.981 533.669 603.534 532.568C566.725 528.679 532.631 566.169 505.258 596.286C483.957 619.728 468.464 636.667 449.977 636.142C441.71 635.91 434.11 632.028 428.578 625.207C427.453 623.823 425.062 620.649 421.583 616.01C403.297 591.618 354.723 526.823 301.668 473.92C243.445 415.863 198.05 390.956 177.11 405.59C167.791 412.104 162.23 421.237 160.11 433.508C151.458 483.608 201.472 567.495 221.472 595.591C226.565 602.742 225.925 612.498 219.939 618.921C177.153 664.829 68.1789 801.719 77.6339 882.725C82.7269 926.38 151.487 1007.08 242.009 1053.09C254.695 1059.54 281.281 1086 345.547 1150.55C453.992 1259.49 635.498 1441.81 828.738 1591.05C836.819 1597.29 838.308 1608.89 832.071 1616.98C828.43 1621.69 822.961 1624.16 817.432 1624.16Z" fill="#371A45"/>
<path d="M190.287 1044.04C190.287 1044.04 159.805 1025.48 128.223 995.294C91.3349 960.008 52.9449 908.855 60.1029 852.797C73.3659 748.889 206.404 606.292 206.404 606.292C245.194 602.588 297.048 630.717 341.995 669.657C394.249 714.904 437.143 774.716 439.546 816.008C442.849 873.168 328.28 1069.77 190.287 1044.04Z" fill="white"/>
<g opacity="0.25">
<path d="M190.287 1044.04C190.287 1044.04 159.805 1025.48 128.223 995.294C157.403 989.288 196.544 971.369 239.088 924.621C326.979 828.121 368.822 755.996 341.995 669.657C394.249 714.904 437.143 774.716 439.546 816.008C442.849 873.168 328.28 1069.77 190.287 1044.04Z" fill="#371A45"/>
</g>
<path d="M196.876 1026.76C199.175 1026.75 201.368 1026.89 203.57 1027.2C204.47 1027.42 206.215 1027.44 207.783 1027.5L212.518 1027.7C215.671 1027.99 218.838 1027.65 222.001 1027.52L226.747 1027.29L231.477 1026.61C244.091 1024.89 256.603 1021.28 268.658 1016.03C292.711 1005.27 315.007 988.987 334.623 969.622C354.291 950.289 371.726 928.189 386.437 904.524C393.798 892.703 400.514 880.483 406.27 868.01C411.961 855.595 416.913 842.695 419.582 830.564L420.426 826.133C420.693 824.673 420.73 823.384 420.92 822.005C421.166 820.547 421.031 819.529 421.075 818.375C421.189 817.33 420.976 815.926 420.814 814.566C420.375 809.2 418.724 803.27 416.753 797.381C412.557 785.511 406.274 773.546 398.995 762.051C384.316 739.016 365.851 717.583 345.745 698.147C325.587 678.743 303.451 661.172 279.833 647.278C268.04 640.364 255.846 634.4 243.571 630.161C231.334 626.011 218.957 623.86 208.162 624.69L219.919 618.899C205.589 634.573 191.392 651.582 177.929 668.596C164.455 685.73 151.647 703.323 139.456 721.242C127.455 739.26 116.192 757.67 106.282 776.555C103.727 781.247 101.657 786.086 99.314 790.842L95.89 798.003C94.79 800.398 93.93 802.842 92.935 805.259C91.061 810.11 88.953 814.934 87.247 819.8L82.7789 834.446C81.9059 836.887 81.478 839.319 81.047 841.746L79.6469 849.026C79.2399 851.426 78.542 853.938 78.353 856.24L77.781 863.113C77.507 872.322 78.61 881.638 80.948 890.867C85.55 909.373 95.193 927.322 107.293 943.87C119.358 960.489 133.926 975.816 149.677 989.947C157.56 997.017 165.764 1003.79 174.204 1010.25C178.444 1013.46 182.708 1016.63 187.045 1019.67L193.56 1024.14L196.817 1026.29L198.424 1027.33L199.2 1027.81L199.584 1028.06C199.124 1027.75 197.8 1027.06 196.876 1026.76ZM183.66 1061.29C182.44 1060.81 180.821 1059.94 180.069 1059.45L179.573 1059.14L178.588 1058.52L176.691 1057.3L173.001 1054.86L165.787 1049.91C161.024 1046.58 156.383 1043.12 151.764 1039.63C142.575 1032.59 133.643 1025.22 124.994 1017.47C107.72 1001.95 91.462 984.954 77.405 965.625C63.389 946.389 51.326 924.614 45.106 899.929C41.991 887.649 40.4149 874.724 40.8369 861.721L41.627 851.994C41.926 848.769 42.684 845.886 43.202 842.817L44.952 833.745C45.518 830.708 46.0979 827.678 47.0709 824.866C60.2409 778.357 83.7499 738.555 108.774 700.616C134.409 662.889 162.037 627.645 192.885 593.682L192.927 593.636C196.074 590.172 200.32 588.24 204.643 587.891C223.117 586.438 240.057 590.013 255.486 595.169C270.895 600.491 285.087 607.523 298.536 615.391C325.387 631.216 349.372 650.367 371.378 671.512C393.305 692.747 413.395 715.916 430.216 742.262C438.559 755.49 446.102 769.533 451.677 785.275C454.341 793.232 456.703 801.498 457.577 810.732C458.193 814.963 458.176 820.717 457.746 825.183C457.485 827.432 457.306 829.807 456.929 831.946L455.727 838.299C452.061 854.769 446.287 869.3 439.841 883.477C433.33 897.581 425.912 911.053 417.806 924.075C401.605 950.103 382.561 974.314 360.489 996.028C338.471 1017.7 312.909 1036.74 283.452 1049.9C268.68 1056.35 252.83 1061.01 236.455 1063.24L230.316 1064.08L224.103 1064.43C219.957 1064.61 215.818 1064.97 211.659 1064.66L205.427 1064.39C203.34 1064.29 201.419 1064.28 198.708 1063.85C193.665 1063.16 188.61 1062.3 183.66 1061.29Z" fill="#371A45"/>
<path d="M486.992 1334.72C480.198 1334.72 473.659 1330.96 470.429 1324.46C465.886 1315.33 469.611 1304.24 478.747 1299.69C480.886 1298.62 693.447 1191.07 766.076 1005.15C769.789 995.639 780.51 990.949 790.019 994.655C799.526 998.371 804.223 1009.09 800.51 1018.6C722.602 1218.02 504.443 1328.2 495.195 1332.79C492.556 1334.1 489.751 1334.72 486.992 1334.72Z" fill="#371A45"/>
<path d="M712.654 654.65L745.054 666.95C750.877 669.161 757.39 666.232 759.6 660.409L907.869 269.843C910.08 264.02 907.151 257.507 901.328 255.297L868.927 242.997C807.836 219.805 739.511 250.529 716.319 311.62L644.03 502.043C620.839 563.133 651.562 631.458 712.654 654.65Z" fill="white"/>
<path d="M749.063 671.096C747.303 671.096 745.54 670.776 743.846 670.134L711.446 657.834C648.699 634.011 617.029 563.581 640.848 500.834L713.138 310.409C724.679 280.013 747.364 255.929 777.017 242.596C806.668 229.259 839.742 228.267 870.137 239.81L902.537 252.11C906.204 253.504 909.109 256.241 910.716 259.817C912.325 263.394 912.445 267.383 911.05 271.05L762.783 661.616C761.391 665.281 758.655 668.186 755.078 669.795C753.154 670.661 751.111 671.096 749.063 671.096ZM713.862 651.467L746.262 663.767C750.312 665.312 754.878 663.262 756.416 659.202L904.685 268.636C906.228 264.578 904.18 260.02 900.12 258.477L867.72 246.18C808.47 223.683 741.988 253.59 719.505 312.828L647.215 503.253C624.724 562.487 654.624 628.979 713.862 651.467Z" fill="#371A45"/>
<g opacity="0.25">
<path d="M678.627 410.911L655.243 472.469C625.869 549.874 664.799 636.482 742.232 665.91C749.607 668.719 757.873 664.966 760.682 657.592L799.562 555.277C795.719 559.155 789.827 560.604 784.393 558.589L775.274 555.098C714.082 531.883 676.908 472.894 678.627 410.911Z" fill="#371A45"/>
</g>
<path d="M749.023 686.633C745.466 686.633 741.85 686.001 738.33 684.665L705.928 672.365C635.169 645.5 599.453 566.078 626.316 495.317L698.606 304.892C725.469 234.135 804.885 198.417 875.654 225.28L908.054 237.58C923.64 243.5 931.501 260.991 925.581 276.572L777.314 667.136C772.739 679.196 761.221 686.633 749.023 686.633ZM719.38 636.936L744.607 646.514L887.432 270.288L862.203 260.71C837.389 251.286 810.391 252.092 786.185 262.983C761.976 273.869 743.456 293.53 734.037 318.344L661.747 508.769C642.3 559.992 668.154 617.487 719.38 636.936Z" fill="#371A45"/>
<path d="M2198.64 747.79L2166.24 735.49C2160.42 733.279 2153.91 736.208 2151.7 742.031L2003.43 1132.6C2001.22 1138.42 2004.15 1144.93 2009.97 1147.14L2042.37 1159.44C2103.46 1182.64 2171.78 1151.91 2194.98 1090.82L2267.27 900.397C2290.46 839.307 2259.73 770.982 2198.64 747.79Z" fill="white"/>
<path d="M2084.41 1170.62C2069.82 1170.62 2055.21 1167.96 2041.16 1162.63L2008.76 1150.33C2005.1 1148.94 2002.19 1146.2 2000.58 1142.62C1998.97 1139.05 1998.85 1135.06 2000.25 1131.39L2148.51 740.823C2149.91 737.158 2152.64 734.253 2156.22 732.644C2159.8 731.03 2163.78 730.913 2167.45 732.31L2199.85 744.607C2262.6 768.428 2294.27 838.857 2270.45 901.607L2198.16 1092.03C2186.62 1122.43 2163.93 1146.51 2134.28 1159.84C2118.33 1167.01 2101.39 1170.62 2084.41 1170.62ZM2162.24 738.156C2161.14 738.156 2160.04 738.388 2159.01 738.852C2157.09 739.714 2155.62 741.271 2154.88 743.239L2006.61 1133.81C2005.86 1135.77 2005.93 1137.91 2006.79 1139.83C2007.65 1141.75 2009.21 1143.21 2011.18 1143.96L2043.58 1156.26C2072.27 1167.16 2103.49 1166.22 2131.49 1153.63C2159.48 1141.04 2180.9 1118.31 2191.79 1089.61L2264.08 899.189C2274.98 870.493 2274.04 839.272 2261.46 811.276C2248.87 783.283 2226.13 761.867 2197.43 750.973L2165.03 738.673C2164.13 738.327 2163.18 738.156 2162.24 738.156Z" fill="#371A45"/>
<g opacity="0.25">
<path d="M2045 1022.98L2004.48 1129.77C2001.67 1137.15 2005.42 1145.41 2012.8 1148.22C2053.44 1163.63 2096.65 1160.25 2132.76 1142.32C2165.38 1126.12 2192.22 1098.02 2206.18 1061.26L2227.18 1005.95C2186.78 1046.13 2124.98 1061.35 2068.21 1039.81L2054.16 1034.47C2049.04 1032.51 2045.75 1028.03 2045 1022.98Z" fill="#371A45"/>
</g>
<path d="M2084.42 1186.17C2067.97 1186.17 2051.48 1183.17 2035.64 1177.16L2003.24 1164.86C1995.7 1161.99 1989.71 1156.36 1986.4 1149C1983.09 1141.63 1982.85 1133.42 1985.72 1125.87L2133.98 735.305C2136.85 727.759 2142.48 721.777 2149.85 718.467C2157.21 715.152 2165.43 714.907 2172.97 717.779L2205.37 730.076C2239.65 743.089 2266.81 768.67 2281.84 802.112C2296.88 835.55 2297.99 872.844 2284.98 907.122L2212.69 1097.55C2199.68 1131.82 2174.1 1158.98 2140.66 1174.02C2122.67 1182.11 2103.56 1186.17 2084.42 1186.17ZM2023.87 1132.15L2049.09 1141.73C2073.91 1151.15 2100.91 1150.34 2125.11 1139.46C2149.32 1128.57 2167.84 1108.91 2177.26 1084.09L2249.55 893.671C2269 842.445 2243.14 784.95 2191.92 765.504H2191.92L2166.69 755.926L2023.87 1132.15Z" fill="#371A45"/>
<g opacity="0.25">
<path d="M1695.09 1449.91C1670.37 1462.53 1644.74 1473.49 1618.52 1482.8C1536.93 1511.63 1448.99 1524.19 1359.75 1517.78C1313.6 1514.43 1267.1 1506.02 1220.95 1492.16C1123.85 1462.98 1038.81 1412.83 969.244 1348.11C904.177 1287.65 852.673 1214.42 817.587 1133.74C799.018 1091.04 785.053 1046.3 776.094 1000.2C787.055 1012.06 798.467 1024.27 810.28 1036.79C808.528 1021.87 806.476 1007.46 804.123 993.593C795.764 944.542 810.73 943.591 813.933 893.89C817.236 844.839 1001.13 842.636 1185.37 871.866C1321.01 900.546 1519.51 926.172 1558.25 1036.79C1560.61 1061.16 1572.07 1092.6 1580.23 1114.87L1599.6 1305.77C1624.32 1341.9 1658.41 1392.6 1695.09 1449.91Z" fill="#371A45"/>
</g>
<path d="M1455.57 1402.81C1843.06 1402.81 2157.19 1088.68 2157.19 701.189C2157.19 313.694 1843.06 -0.432617 1455.57 -0.432617C1068.07 -0.432617 753.946 313.694 753.946 701.189C753.946 1088.68 1068.07 1402.81 1455.57 1402.81Z" fill="white"/>
<path d="M1455.21 1406.29C1388.2 1406.29 1320.13 1396.66 1252.73 1376.41C1072.37 1322.23 923.906 1201.05 834.687 1035.21C745.466 869.368 726.169 678.706 780.351 498.35C834.531 317.994 955.703 169.529 1121.55 80.3102C1287.39 -8.91083 1478.05 -28.2098 1658.41 25.9742C2030.72 137.82 2242.63 531.714 2130.78 904.031C2039.19 1208.95 1758.38 1406.29 1455.21 1406.29ZM1454.65 2.64116C1340.74 2.64116 1227.91 30.8172 1124.77 86.3062C960.53 174.663 840.527 321.694 786.87 500.307C733.213 678.923 752.324 867.744 840.683 1031.98C929.04 1196.23 1076.07 1316.23 1254.68 1369.89C1321.41 1389.93 1388.87 1399.48 1455.21 1399.48C1755.48 1399.49 2033.54 1204.06 2124.26 902.072C2235.03 533.351 2025.17 143.259 1656.45 32.4922C1590 12.5312 1522.13 2.64116 1454.65 2.64116Z" fill="#371A45"/>
<g opacity="0.25">
<path d="M817.994 408.247C804.588 437.345 793.093 467.744 783.596 499.332C672.165 870.448 882.62 1261.66 1253.71 1373.17C1624.82 1484.6 2016.03 1274.15 2127.55 903.061C2130.76 892.391 2133.72 881.635 2136.37 870.964C1992.81 1184.46 1636.48 1351.98 1296.93 1249.99C936.51 1141.69 727.664 769.587 817.994 408.247Z" fill="#371A45"/>
</g>
<path d="M1455.2 1421.83C1386.71 1421.83 1317.14 1411.99 1248.25 1391.29C1063.92 1335.92 912.185 1212.07 820.998 1042.57C729.811 873.076 710.087 678.21 765.463 493.876C879.775 113.351 1282.35 -103.226 1662.88 11.085C2043.4 125.397 2259.98 527.977 2145.67 908.502C2052.05 1220.14 1765.05 1421.83 1455.2 1421.83ZM1455.91 18.447C1162.33 18.447 890.459 209.509 801.758 504.78C749.295 679.419 767.981 864.035 854.373 1024.62C940.765 1185.2 1084.52 1302.54 1259.16 1355C1324.4 1374.6 1390.36 1383.93 1455.22 1383.93C1748.8 1383.95 2020.68 1192.87 2109.38 897.599C2217.68 537.086 2012.49 155.68 1651.98 47.3791C1586.74 27.7801 1520.78 18.447 1455.91 18.447Z" fill="#371A45"/>
<path d="M780.575 517.233C739.092 648.113 743.065 783.089 783.86 906.654C814.444 999.291 996.565 1202.18 1272.29 1292.3C1527.95 1375.87 1804.55 1313.11 1882.91 1255C1987.44 1177.5 2068.44 1069.45 2109.92 938.575C2219.7 592.228 1967.64 354.331 1600.53 237.976C1233.43 121.621 890.351 170.885 780.575 517.233Z" fill="#371A45"/>
<path d="M1538.38 1352.06C1451.79 1352.07 1358.21 1340.32 1266.41 1310.31C973.913 1214.71 796.076 1004.1 765.866 912.592C722.314 780.68 721.154 641.989 762.512 511.508C816.44 341.366 926.255 231.799 1088.9 185.856C1230.7 145.802 1409.6 157.585 1606.26 219.911C1802.92 282.245 1955.94 375.67 2048.77 490.089C2155.26 621.337 2181.91 774.154 2127.99 944.298C2086.63 1074.78 2005.79 1187.48 1894.2 1270.22C1840.33 1310.17 1701.87 1352.06 1538.38 1352.06ZM1269.79 200.422C1208.2 200.422 1150.99 207.7 1099.21 222.326C949.597 264.587 848.471 365.734 798.64 522.958C759.704 645.792 760.815 776.417 801.853 900.712C829.089 983.214 1001.97 1184.01 1278.18 1274.29C1527.4 1355.76 1796.99 1295.13 1871.63 1239.78C1976.77 1161.82 2052.93 1055.68 2091.86 932.848C2226.84 506.962 1789.22 317.66 1594.81 256.039C1478.14 219.06 1368.35 200.422 1269.79 200.422Z" fill="#371A45"/>
<g opacity="0.5">
<path d="M1931.49 1030.69C1927.03 1042.4 1921.48 1052.39 1914.85 1060.66C1908.42 1068.84 1901.42 1075.57 1893.82 1080.87C1886.23 1086.16 1878.21 1090.07 1869.76 1092.6C1861.31 1095.13 1852.97 1096.65 1844.76 1097.18C1836.55 1097.71 1828.5 1097.34 1820.62 1096.08C1812.89 1094.88 1805.84 1093.06 1799.45 1090.63L1570.62 1003.44L1593.22 944.124L1822.05 1031.31C1833.46 1035.66 1843.55 1035.67 1852.34 1031.36C1861.27 1027.1 1867.89 1019.34 1872.18 1008.09C1874.26 1002.61 1875.34 997.273 1875.4 992.072C1875.47 986.872 1874.54 981.99 1872.62 977.427C1870.86 972.922 1868.04 968.888 1864.17 965.324C1860.46 961.819 1855.86 959.023 1850.39 956.936L1713.96 904.955C1704.38 901.304 1694.67 895.69 1684.84 888.114C1675.07 880.385 1666.85 870.893 1660.16 859.637C1653.63 848.44 1649.52 835.464 1647.82 820.711C1646.28 806.015 1648.9 789.77 1655.68 771.975C1662.46 754.18 1671.29 740.386 1682.16 730.595C1693.24 720.709 1704.94 713.76 1717.27 709.748C1729.81 705.643 1742.27 704.032 1754.64 704.916C1767.08 705.648 1778.09 707.84 1787.67 711.491L1989.58 788.42L1966.97 847.737L1765.07 770.808C1753.81 766.519 1743.69 766.58 1734.69 770.99C1725.85 775.459 1719.28 783.32 1715 794.575C1710.65 805.982 1710.32 816.22 1714.01 825.288C1717.9 834.262 1725.48 840.893 1736.73 845.182L1873.16 897.163L1873.62 897.337C1879.95 899.923 1886.37 903.415 1892.88 907.811C1899.45 912.056 1905.59 917.184 1911.31 923.196C1917.19 929.266 1922.33 936.103 1926.75 943.708C1931.23 951.161 1934.54 959.389 1936.68 968.392C1938.97 977.453 1939.8 987.173 1939.15 997.552C1938.51 1007.93 1935.96 1018.98 1931.49 1030.69Z" fill="url(#paint0_linear_70_2)"/>
<path d="M1236.22 841.801C1234.59 846.06 1232.33 849.724 1229.41 852.795C1226.5 855.866 1223.16 858.248 1219.38 859.943C1215.8 861.543 1211.9 862.409 1207.67 862.539C1203.44 862.669 1199.2 861.923 1194.94 860.3L980.945 778.764C975.47 776.677 969.77 773.809 963.846 770.158C958.131 766.413 952.678 761.984 947.485 756.87C942.444 751.815 937.922 746.085 933.917 739.683C929.97 733.128 926.95 725.968 924.857 718.204C922.975 710.345 922.276 701.893 922.762 692.847C923.306 683.649 925.519 673.954 929.402 663.764L990.598 503.152C992.684 497.677 995.523 492.053 999.116 486.281C1002.92 480.414 1007.35 474.961 1012.4 469.92C1017.52 464.728 1023.35 460.158 1029.91 456.211C1036.46 452.264 1043.59 449.32 1051.3 447.379C1059.21 445.345 1067.7 444.57 1076.74 445.056C1085.79 445.542 1095.41 447.726 1105.6 451.609L1346.74 543.49L1324.14 602.806L1083 510.926C1075.24 507.97 1068.53 507.763 1062.85 510.305C1057.18 512.847 1052.81 518.148 1049.74 526.209L988.718 686.365C985.821 693.969 985.614 700.683 988.098 706.507C990.792 712.236 995.941 716.549 1003.55 719.447L1188.11 789.77L1216.45 715.396L1058.58 655.243L1081.35 595.47L1268.66 666.836C1272.91 668.459 1276.55 670.802 1279.56 673.866C1282.63 676.778 1284.94 680.095 1286.48 683.818C1288.18 687.599 1289.09 691.604 1289.22 695.834C1289.41 699.911 1288.72 704.004 1287.15 708.11L1236.22 841.801Z" fill="url(#paint1_linear_70_2)"/>
<path d="M1542.56 992.75L1328.57 911.214C1323.09 909.128 1317.39 906.259 1311.47 902.608C1305.75 898.864 1300.3 894.434 1295.11 889.321C1290.07 884.265 1285.54 878.536 1281.54 872.133C1277.59 865.578 1274.57 858.418 1272.48 850.654C1270.6 842.795 1269.9 834.343 1270.38 825.297C1270.93 816.099 1273.14 806.404 1277.02 796.214L1338.22 635.603C1340.31 630.127 1343.14 624.503 1346.74 618.731C1350.54 612.865 1354.97 607.411 1360.03 602.37C1365.14 597.178 1370.97 592.608 1377.53 588.661C1384.08 584.714 1391.21 581.77 1398.92 579.83C1406.84 577.795 1415.32 577.02 1424.36 577.506C1433.41 577.992 1443.03 580.176 1453.22 584.059L1667.22 665.596L1644.61 724.912L1430.62 643.376C1422.86 640.42 1416.15 640.213 1410.48 642.755C1404.8 645.297 1400.43 650.599 1397.36 658.66L1336.34 818.815C1333.44 826.42 1333.24 833.134 1335.72 838.957C1338.41 844.686 1343.56 848.999 1351.17 851.897L1565.16 933.434L1542.56 992.75Z" fill="url(#paint2_linear_70_2)"/>
<path d="M1100.74 549.995C1109.46 481.976 1076.59 421.707 1027.3 415.382C978.01 409.056 930.978 459.069 922.249 527.088C913.519 595.107 946.398 655.375 995.686 661.701C1044.97 668.026 1092.01 618.014 1100.74 549.995Z" fill="white"/>
</g>
<g opacity="0.5">
<path d="M1042.77 863.403C1069.78 863.109 1091.39 837.357 1091.05 805.885C1090.71 774.413 1068.53 749.138 1041.53 749.433C1014.52 749.727 992.903 775.479 993.246 806.951C993.589 838.423 1015.76 863.698 1042.77 863.403Z" fill="white"/>
</g>
<g opacity="0.35">
<path d="M1012.26 235.096C906.432 286.878 824.698 378.116 780.59 517.215C739.097 648.121 743.098 783.097 783.842 906.648C814.443 999.29 996.587 1202.18 1272.3 1292.33C1369.65 1324.18 1470.01 1334.76 1561.36 1332.45C1224.81 1214.41 1003.34 966.049 965.42 851.156C913.635 694.327 908.608 523.001 961.269 356.933C975.31 312.536 992.465 272.01 1012.26 235.096Z" fill="#111A28"/>
</g>
<path d="M2153.4 646.269C2146 646.269 2138.99 641.911 2135.96 634.653C2135.91 634.526 2135.81 634.284 2135.76 634.155L2135.25 632.666C2076.23 434.795 1888.65 272.583 1620.6 187.62C1354.03 103.133 1107.96 124.678 945.5 246.731L943.432 248.286L941.022 249.228C931.359 253.01 920.382 248.332 916.491 238.701C913.056 230.198 916.186 220.669 923.571 215.808C1095.95 86.8431 1354.09 63.4061 1632.05 151.492C1912.19 240.288 2108.8 411.648 2171.51 621.67C2174.4 630.996 2169.72 641.165 2160.53 644.878C2158.19 645.822 2155.77 646.269 2153.4 646.269Z" fill="#371A45"/>
<g opacity="0.5">
<path d="M1895.34 1097.3C1895.34 1097.3 2110.91 789.628 1969.92 595.109C1828.94 400.589 1563.84 317.17 1564.65 336.124C1564.65 336.124 1835.44 500.085 1876.7 768.321C1908.52 975.163 1895.34 1097.3 1895.34 1097.3Z" fill="white"/>
</g>
</g>
<defs>
<linearGradient id="paint0_linear_70_2" x1="1907.72" y1="602.167" x2="1723.28" y2="1086.22" gradientUnits="userSpaceOnUse">
<stop offset="0.345" stop-color="#5E56A0"/>
<stop offset="0.845" stop-color="white"/>
</linearGradient>
<linearGradient id="paint1_linear_70_2" x1="1236.3" y1="346.346" x2="1009.5" y2="941.602" gradientUnits="userSpaceOnUse">
<stop offset="0.345" stop-color="#5E56A0"/>
<stop offset="0.845" stop-color="white"/>
</linearGradient>
<linearGradient id="paint2_linear_70_2" x1="1566.17" y1="472.031" x2="1339.37" y2="1067.29" gradientUnits="userSpaceOnUse">
<stop offset="0.345" stop-color="#5E56A0"/>
<stop offset="0.845" stop-color="white"/>
</linearGradient>
<clipPath id="clip0_70_2">
<rect width="2294" height="3029" fill="white"/>
</clipPath>
</defs>
</svg>
