<svg width="1307" height="1722" viewBox="0 0 1307 1722" fill="none" xmlns="http://www.w3.org/2000/svg">
<path d="M1175 1285.17C1100.68 1144.47 653.936 1056.18 653.936 1056.18C653.936 1056.18 192.822 1156.3 118.5 1297C63.563 1492.25 19.8724 1706.75 19.8724 1706.75L643.5 1608L1260.5 1699.5C1260.5 1699.5 1244.85 1462.5 1175 1285.17Z" fill="#D3A780"/>
<path d="M628.064 1050.54C628.064 1050.54 1105.92 1138.83 1180.24 1279.53C1250.1 1456.86 1247.62 1622 1247.62 1622L624.679 1644.74L628.064 1050.54Z" fill="#D2A27D"/>
<path d="M775.151 763.883H514.977V1199.3H775.151V763.883Z" fill="#D3A780"/>
<path d="M775.151 763.883H645.064V1199.3H775.151V763.883Z" fill="#D2A27D"/>
<path opacity="0.1" d="M514.977 965.648C538.375 1032.82 632.799 1071.32 702.151 1071.32C727.238 1071.32 751.641 1067.11 775.151 1059.42V763.883H514.977V965.648Z" fill="#DDAC8C"/>
<path d="M979.56 489.133C979.56 217.172 829.801 62.5234 645.064 62.5234C460.326 62.5234 310.568 217.172 310.568 489.133C310.568 854.945 460.326 981.591 645.064 981.591C829.785 981.591 979.56 839.701 979.56 489.133Z" fill="#D3A780"/>
<path d="M928.637 677.725C867.998 671.386 827.062 606.047 837.335 531.885C847.482 457.659 904.904 402.546 965.575 408.854C1026.18 415.162 1067.05 480.468 1056.83 554.694C1046.65 628.936 989.276 684.001 928.637 677.725Z" fill="#D2A27D"/>
<path d="M235.672 554.71C225.43 480.484 266.319 415.177 326.894 408.87C387.581 402.562 445.019 457.658 455.197 531.901C465.439 606.063 424.456 671.401 363.864 677.741C303.209 684.001 245.835 628.936 235.672 554.71Z" fill="#D3A780"/>
<path d="M979.56 489.133C979.56 217.172 829.801 62.5234 645.064 62.5234V981.591C829.785 981.591 979.56 839.701 979.56 489.133Z" fill="#D2A27D"/>
<path d="M945.951 717.085C927.952 767.673 897.513 828.488 842.512 828.488C773.765 828.488 724.594 772.611 645.733 772.611C645.51 772.611 645.303 772.643 645.08 772.643C644.841 772.643 644.634 772.611 644.395 772.611C565.549 772.611 516.394 828.488 447.615 828.488C392.615 828.488 362.192 767.673 344.192 717.085L328.614 619.635V736.246C328.614 736.246 354.753 873.581 404.911 906.76C445.768 943.061 579.136 1005.25 644.363 1005.25C644.586 1005.25 644.825 1005.21 645.064 1005.21C645.287 1005.21 645.51 1005.25 645.717 1005.25H645.749C710.991 1005.25 844.36 943.076 885.2 906.76C935.358 873.581 961.497 736.246 961.497 736.246V619.635L945.951 717.085Z" fill="#303030"/>
<path d="M483.522 103.139C483.522 103.139 545.643 354.6 891.798 481.805C859.241 425.593 853.331 357.547 853.331 357.547C853.331 357.547 909.543 416.721 1001.24 464.06C1051.54 363.488 1110.72 212.599 977.589 129.771C844.459 46.9278 527.898 -101.015 483.522 103.139Z" fill="#303030"/>
<path d="M368.152 461.096C368.152 461.096 393.845 174.018 500.804 110.512C409.566 70.7068 270.527 191.874 285.309 265.83C300.106 339.801 368.152 461.096 368.152 461.096Z" fill="#303030"/>
<path d="M475.704 460.639C475.704 460.639 469.469 172.482 568.744 97.5287C473.661 68.065 348.885 203.875 371.76 275.74C394.653 347.62 475.704 460.639 475.704 460.639Z" fill="#303030"/>
<path d="M694.323 423.408C694.323 423.408 512.832 199.5 545.361 79.437C452.165 114.412 436.771 298.196 498.883 340.974C561.018 383.753 694.323 423.408 694.323 423.408Z" fill="#303030"/>
<path d="M1205.24 1278.66C1161.82 1196.5 980.934 1132.26 837.849 1093C832.242 1190.32 751.804 1267.58 653.064 1267.58C554.34 1267.58 473.885 1190.32 468.294 1093C325.21 1132.26 144.311 1196.5 100.89 1278.66C45.9534 1473.91 0 1722 0 1722H653.064H1306.13C1306.13 1722 1275.08 1455.99 1205.24 1278.66Z" fill="#151413"/>
<path opacity="0.2" d="M449.575 1141.03C455.5 1238.36 540.606 1315.61 645.048 1315.61C749.506 1315.61 834.596 1238.36 840.521 1141.03C971.659 1175.04 1132.65 1227.83 1203.24 1294.74C1201.27 1289.39 1199.26 1284.1 1197.21 1278.91C1153.78 1196.75 972.902 1132.51 829.817 1093.25C824.21 1190.57 743.772 1267.82 645.032 1267.82C546.308 1267.82 465.854 1190.57 460.263 1093.25C317.178 1132.51 136.279 1196.75 92.8586 1278.91C91.5684 1283.51 90.2782 1288.18 88.988 1292.83C160.666 1226.84 319.695 1174.71 449.575 1141.03Z" fill="#6A615E"/>
<path d="M618.22 723C618.22 723 653.504 756.75 684.22 723" stroke="#CC9367" stroke-width="10" stroke-linecap="round" stroke-linejoin="round"/>
<path d="M617.22 718C617.22 718 653.038 751.75 684.22 718" stroke="#2B343B" stroke-width="3" stroke-linecap="round" stroke-linejoin="round"/>
<path d="M405.867 1108.94C423.994 1224.9 524.024 1313.71 645.064 1313.71C766.104 1313.71 866.134 1224.9 884.26 1108.94C865.767 1103.33 847.513 1098.11 829.849 1093.26C824.242 1190.59 743.804 1267.84 645.064 1267.84C546.34 1267.84 465.885 1190.59 460.294 1093.26C442.614 1098.11 424.36 1103.33 405.867 1108.94Z" fill="#110E0D"/>
<path d="M590.269 825.976C590.269 825.976 598.992 861.253 645.444 860.256C687.915 859.345 699.098 823.64 699.098 823.64L590.269 825.976Z" fill="white"/>
<g clip-path="url(#clip0_149_2)">
<path d="M917.576 617.668C915.747 634.16 902.046 646.66 885.689 646.775H748.248C731.871 646.701 718.138 634.181 716.309 617.679C713.289 590.297 710.268 566.061 707.269 541.908C705.753 529.786 704.248 517.683 702.754 505.214C701.353 493.583 709.651 482.892 721.241 481.365C753.002 477.206 784.962 475.126 816.942 475.126C848.911 475.126 880.892 477.206 912.631 481.365C924.232 482.892 932.53 493.583 931.119 505.214C929.635 517.578 928.14 529.587 926.645 541.615C923.626 565.874 920.607 590.193 917.576 617.668Z" fill="#53DCFF"/>
<path d="M798.791 475.422C775.455 475.997 752.151 477.693 728.941 480.485L893.951 645.495C906.438 642.031 916.068 631.268 917.575 617.669C918.373 610.438 919.17 603.446 919.966 596.597L798.791 475.422Z" fill="#B3F4FF"/>
<path d="M364.077 529.054L317.295 510.342C313.232 508.717 310.567 504.781 310.567 500.405V486.247C310.567 480.337 315.359 475.545 321.269 475.545H374.779L364.077 529.054Z" fill="#9F6459"/>
<path d="M941.978 529.054L988.76 510.342C992.823 508.717 995.488 504.781 995.488 500.405V486.247C995.488 480.337 990.696 475.545 984.786 475.545H931.277L941.978 529.054Z" fill="#9F6459"/>
<path d="M589.757 617.668C587.928 634.16 574.227 646.66 557.87 646.775H420.429C404.052 646.701 390.319 634.181 388.49 617.679C385.47 590.297 382.449 566.061 379.45 541.908C377.934 529.786 376.429 517.683 374.935 505.214C373.535 493.583 381.833 482.892 393.423 481.365C425.183 477.206 457.143 475.126 489.123 475.126C521.092 475.126 553.073 477.206 584.812 481.365C596.413 482.892 604.711 493.583 603.3 505.214C601.816 517.578 600.321 529.587 598.827 541.615C595.807 565.874 592.788 590.193 589.757 617.668Z" fill="#53DCFF"/>
<path d="M915.411 460.15C850.071 451.58 783.801 451.58 718.46 460.15C699.634 462.619 685.367 477.218 682.087 495.021C673.626 489.526 663.669 486.245 653.026 486.245C642.381 486.245 632.425 489.525 623.964 495.021C620.681 477.214 606.416 462.618 587.592 460.15C522.252 451.58 455.982 451.58 390.643 460.15C367.473 463.19 350.887 484.553 353.677 507.765C355.182 520.276 356.698 532.398 358.203 544.542C361.202 568.611 364.201 592.753 367.211 620.031C370.242 647.35 393.078 668.043 420.375 668.178H557.901C557.923 668.178 557.943 668.178 557.964 668.178C585.19 668.022 608.003 647.318 611.035 620.02C614.045 592.638 617.065 568.413 620.064 544.249C620.539 540.442 621.01 536.541 621.484 532.727C621.615 532.377 621.84 532.088 621.935 531.719C625.583 517.547 638.363 507.65 653.026 507.65C667.668 507.65 680.45 517.527 684.107 531.666C684.195 532.009 684.432 532.256 684.551 532.583C685.03 536.445 685.507 540.397 685.988 544.249C688.987 568.411 692.008 592.638 695.018 620.029C698.049 647.348 720.884 668.042 748.193 668.177H885.719C885.74 668.177 885.76 668.177 885.782 668.177C913.007 668.021 935.81 647.316 938.841 620.019C941.851 592.751 944.851 568.609 947.85 544.541C949.355 532.397 950.87 520.273 952.375 507.764C955.167 484.554 938.582 463.192 915.411 460.15ZM589.757 617.668C587.928 634.16 574.227 646.66 557.87 646.775H420.429C404.052 646.701 390.319 634.181 388.49 617.679C385.47 590.297 382.449 566.061 379.45 541.908C377.934 529.786 376.429 517.683 374.935 505.214C373.535 493.583 381.833 482.891 393.423 481.365C425.183 477.206 457.143 475.126 489.123 475.126C521.092 475.126 553.073 477.206 584.812 481.365C596.413 482.891 604.711 493.583 603.3 505.214C601.816 517.577 600.321 529.586 598.827 541.615C595.807 565.874 592.788 590.192 589.757 617.668ZM931.12 505.215C929.626 517.683 928.121 529.786 926.605 541.91C923.606 566.062 920.585 590.298 917.565 617.669C915.736 634.161 902.035 646.661 885.689 646.776H748.248C731.86 646.702 718.127 634.183 716.298 617.68C713.267 590.194 710.248 565.874 707.227 541.618C705.733 529.589 704.239 517.58 702.754 505.206C701.343 493.584 709.641 482.893 721.241 481.368C752.991 477.209 784.962 475.128 816.931 475.128C848.9 475.128 880.881 477.209 912.631 481.368C924.221 482.891 932.519 493.584 931.12 505.215Z" fill="#5C546A"/>
<path d="M470.973 475.422C447.636 475.997 424.332 477.693 401.123 480.485L566.132 645.495C578.619 642.031 588.249 631.268 589.757 617.669C590.554 610.438 591.351 603.446 592.147 596.597L470.973 475.422Z" fill="#B3F4FF"/>
<path d="M489.676 598.913C510.363 598.913 527.133 582.143 527.133 561.457C527.133 540.77 510.363 524 489.676 524C468.99 524 452.22 540.77 452.22 561.457C452.22 582.143 468.99 598.913 489.676 598.913Z" fill="#474747"/>
<path d="M824.676 598.913C845.363 598.913 862.133 582.143 862.133 561.457C862.133 540.77 845.363 524 824.676 524C803.99 524 787.22 540.77 787.22 561.457C787.22 582.143 803.99 598.913 824.676 598.913Z" fill="#474747"/>
</g>
<defs>
<clipPath id="clip0_149_2">
<rect width="685" height="214" fill="white" transform="translate(310.22 454)"/>
</clipPath>
</defs>
</svg>
